<svg width="553" height="490" viewBox="0 0 553 490" fill="none" xmlns="http://www.w3.org/2000/svg">
<g clip-path="url(#clip0_250_17686)">
<ellipse cx="301.993" cy="245.214" rx="247" ry="245" fill="#2E8B57"/>
<path d="M465.493 61.2139C498.421 88.2216 520.939 123.268 534.853 163.348C538.155 172.86 541.993 185.714 544.493 198.214C540.933 195.551 535.847 187.182 532.377 183.871C531.802 183.415 531.414 183.228 531.053 183.092C531.08 183.141 531.172 183.075 531.005 182.802C529.919 182.011 529 181.495 528.077 181.028C528.072 181.077 528.171 181.063 527.956 180.776C525.715 180.595 523.688 180.702 521.638 180.855C521.615 180.901 521.67 180.988 521.348 181.194C519.252 184.869 519.201 188.167 521.99 191.203C521.987 191.22 522.022 191.213 522.271 191.526C525.669 192.235 528.817 192.631 532.212 193.222C533.537 194.385 534.616 195.353 535.814 196.696C539.772 204.966 538.694 212.625 534.6 220.245C534.135 220.548 533.994 220.815 533.755 221.27C533.268 221.608 533.073 221.873 532.7 222.291C531.921 222.881 531.398 223.376 530.653 223.958C530.431 224.046 530.025 224.298 529.678 224.369C517.915 230.09 516.885 229.727 511.582 218.171C511.375 217.718 511.219 217.242 511.005 216.793C507.009 208.394 503.14 199.931 498.934 191.638C497.513 188.838 495.235 186.473 493.349 183.909C492.905 184.101 492.461 184.292 492.017 184.484C492.148 186.36 492.012 188.303 492.453 190.104C496.641 207.22 505.739 221.897 515.816 236.003C517.059 237.743 519.917 238.734 522.211 239.242C528.715 240.683 530.49 242.517 528.54 248.892C526.466 255.672 523.664 262.282 520.602 268.691C517.169 275.877 512.854 282.639 509.347 289.794C504.924 298.816 501.777 308.367 502.127 318.521C502.603 332.314 497.863 344.221 490.361 355.373C489.388 356.82 488.832 358.548 487.718 360.308C486.245 360.698 485.097 361.245 484.038 361.107C464.029 358.49 443.996 356.206 423.993 353.214C423.917 352.495 423.878 351.675 423.881 350.824C425.355 342.061 426.07 333.552 428.308 325.464C431.768 312.96 430.004 302.171 420.724 292.879C415.766 287.915 414.153 282.403 415.794 275.229C418.092 265.182 413.031 259.395 402.535 259.041C398.923 258.919 395.21 259.248 391.672 259.989C385.026 261.381 378.473 263.219 371.883 264.878C358.942 268.136 350.86 265.267 342.685 254.566C336.915 247.012 333.753 238.342 331.651 228.828C330.759 223.328 329.907 218.189 329.047 212.736C328.99 212.009 328.942 211.595 328.949 210.748C330.078 204.308 331.15 198.302 332.177 192.286C332.131 192.276 332.132 192.369 332.384 192.141C333.385 190.016 334.134 188.12 334.953 186.027C335.023 185.83 335.066 185.414 335.294 185.306C335.708 184.931 335.895 184.664 336.354 184.193C340.593 180.047 343.983 175.095 348.671 172.415C354.729 168.953 358.739 164.67 360.909 158.186C362.695 152.851 366.66 150.139 372.198 148.816C381.537 146.584 390.795 143.942 399.954 141.05C407.441 138.686 413.694 141.234 419.681 145.113C420.851 145.871 421.658 147.808 421.879 149.311C423.259 158.701 425.589 161.033 435.594 162.679C440.532 164.766 445.269 167.711 450.119 163.315C450.076 163.29 450.039 163.383 450.307 163.286C450.794 162.888 451.014 162.587 451.475 162.158C452.154 161.456 452.784 160.869 453.493 160.214C454.236 159.826 454.517 159.53 455.392 159.242C456.87 159.227 457.944 159.192 459.403 159.246C464.945 160.527 470.055 162.119 475.281 162.753C478.083 163.094 481.084 161.787 483.994 161.219C483.993 161.215 484.001 161.215 484.287 160.98C486.021 158.098 487.381 155.452 484.409 152.827C484.36 152.786 484.237 152.821 484.066 152.56C480.954 151.733 478.013 151.168 474.793 150.441C469.335 148.698 468.283 143.851 466.073 139.842C465.019 137.932 463.281 136.399 461.853 134.696C460.555 136.259 459.058 137.699 457.995 139.409C454.474 145.074 450.001 145.271 446.408 139.778C445.865 138.948 445.408 138.061 444.873 136.845C441.756 128.675 437.576 121.677 430.24 116.732C429.851 116.574 429.579 116.615 429.307 116.655C429.531 116.845 429.755 117.035 430.067 117.553C431.751 119.79 433.783 121.485 434.849 123.655C436.82 127.668 438.226 131.959 439.903 136.148C439.939 136.163 439.959 136.087 439.709 136.195C439.249 136.589 439.041 136.876 438.896 137.149C438.959 137.135 438.921 137.01 438.564 137.082C436.131 137.194 434.057 137.235 431.841 137.031C431.195 136.236 430.691 135.687 430.092 134.816C429.026 133.024 428.054 131.555 427.062 130.129C427.042 130.172 427.128 130.133 427.043 129.834C426.311 128.739 425.663 127.943 424.894 126.834C413.02 114.373 402.912 115.051 392.87 128.651C391.982 129.853 391.097 131.068 390.094 132.171C385.016 137.759 378.857 141.695 371.276 142.256C368.825 142.437 364.48 140.845 363.963 139.157C361.866 132.314 360.396 125.167 359.754 118.036C359.376 113.833 362.588 111.629 367.144 112.178C369.436 112.454 371.79 112.583 374.084 112.393C380.651 111.851 382.112 109.294 379.548 103.203C377.172 97.5579 377.409 96.989 382.979 94.0229C383.757 93.6087 384.333 92.8166 384.981 92.2189C384.959 92.2383 384.914 92.2755 385.287 92.3838C388.998 90.6768 393.519 89.6844 395.458 86.8964C402.043 77.4274 410.405 78.8513 419.363 81.4926C420.632 81.8667 421.949 82.0881 423.253 82.3301C427.669 83.1496 432.669 84.7463 435.793 80.4803C439.171 75.8665 436.416 70.7967 434.466 66.3183C433.696 64.5495 431.189 63.537 429.473 62.1802C428.976 63.9327 428.132 65.669 428.05 67.4407C427.818 72.4391 426.262 73.8188 421.541 72.2414C416.031 70.4007 410.621 68.2602 405.17 66.2458C396.808 63.1559 395.328 57.2986 401.228 50.6562C410.273 40.4724 426.786 39.1322 436.53 48.5503C444.156 55.9208 454.033 58.5425 463.037 63.0361C463.486 63.26 464.797 61.4842 465.493 61.2139Z" fill="#F8C467"/>
<path d="M288.036 17.1632C287.867 16.8824 287.698 16.6015 287.071 15.9507C280.447 14.7343 274.229 12.9421 268.129 13.2776C260.293 13.7085 252.492 15.5964 244.8 17.3895C242.144 18.0086 238.58 19.8266 242.86 23.4014C242.86 23.4014 242.935 23.3246 243.103 23.6251C246.172 24.6731 249.071 25.4206 251.971 26.168C251.971 26.168 252.266 26.3522 252.651 26.5969C253.654 27.0663 254.272 27.291 254.891 27.5158C254.891 27.5158 254.782 27.3747 254.849 27.7117C255.588 28.7968 256.259 29.5447 256.931 30.2927C256.931 30.2927 256.991 30.2223 256.99 30.5296C257.263 31.3175 257.536 31.7979 257.81 32.2784C257.851 32.7174 257.892 33.1563 257.97 34.3047C257.848 36.0473 257.689 37.0806 257.53 38.1138C253.829 45.5386 247.318 49.6965 240.137 53.0739C236.693 54.6937 233.676 54.3783 231.364 51.0708C228.797 47.3979 225.896 47.358 222.461 49.9579C220.891 51.1456 219.053 52.4261 217.197 52.694C213.178 53.274 211.461 54.8982 211.557 59.2029C211.583 60.4065 208.427 62.7911 206.794 62.7367C197.751 62.4352 190.464 66.8095 183.106 70.9605C180.117 72.6469 176.823 74.7784 177.962 79.1289C179.375 84.5228 182.343 88.9978 187.781 90.8782C191.838 92.2807 195.38 90.9906 198.505 87.6346C205.617 79.9954 212.979 72.5794 220.438 65.2762C222.944 62.8235 226.118 60.7695 229.888 62.6628C233.987 64.7208 236.045 68.5065 235.805 72.875C235.544 77.6177 237.416 80.6105 240.995 83.3962C244.499 86.1228 249.371 88.6301 246.896 94.5657C245.061 98.9681 237.906 101.92 232.294 100.889C228.872 100.26 225.417 99.1173 222.026 99.2707C219.799 99.3714 216.4 100.93 215.798 102.637C215.059 104.734 216.367 107.807 217.416 110.182C218.016 111.539 219.83 112.387 221.152 113.391C225.016 116.327 225.191 119.35 221.15 122.001C218.863 123.5 216.082 124.729 213.399 125.056C203.215 126.296 195.149 130.005 190.24 139.892C188.505 143.386 184.144 145.668 180.759 148.207C179.363 149.254 177.406 149.605 175.662 150.129C159.856 154.879 149.858 164.669 148.068 181.685C147.825 183.992 147.586 186.374 146.809 188.528C146.204 190.207 144.767 191.586 143.699 193.099C142.28 191.896 140.731 190.815 139.47 189.465C136.709 186.51 134.653 182.419 131.323 180.557C117.545 172.855 103.211 185.722 102.226 196.066C101.713 201.442 102.567 207.298 104.294 212.436C105.874 217.133 109.487 217.474 113.475 214.361C115.953 212.426 117.981 209.909 120.484 208.013C121.741 207.061 123.608 206.913 125.2 206.402C125.181 207.932 125.601 209.647 125.051 210.952C123.896 213.688 122.318 216.262 120.752 218.803C118.895 221.817 119.267 224.363 122.488 225.818C127.072 227.889 128.804 231.714 130.243 236.149C134.895 250.493 139.812 253.229 153.527 247.024C166.46 241.173 178.35 242.629 189.366 250.161C199.202 256.885 208.578 264.469 217.296 272.598C230.592 284.994 245.193 294.563 263.139 298.543C265.376 299.039 267.554 300.024 269.609 301.075C276.444 304.568 279.103 311.143 275.365 317.755C269.9 327.422 267.287 337.548 266.686 348.594C266.243 356.758 262.672 363.472 254.121 366.689C247.344 369.238 243.17 374.568 241.053 381.498C240.133 384.513 239.103 387.495 237.645 390.861C229.463 389.183 221.691 387.357 214.07 385.037C202.169 381.414 190.371 377.455 178.396 373.205C177.02 354.96 169.788 340.583 154.48 330.656C151.87 328.963 149.569 326.617 147.555 324.212C137.417 312.106 130.9 299.391 139.795 283.421C142.066 279.345 142.767 274.31 143.745 269.623C144.533 265.849 143.873 262.161 139.881 260.272C130.022 255.606 123.118 247.796 117.5 238.834C115.216 235.192 112.495 233.315 108.467 231.935C101.918 229.692 95.5266 226.778 89.4258 223.485C80.9311 218.901 76.4586 212.093 76.7551 201.676C77.0768 190.378 75.0965 179.178 69.0696 169.163C69.3353 167.238 69.2848 165.201 69.9124 163.402C91.9551 100.209 133.84 54.7363 193.673 25.5073C221.65 11.8406 251.142 3.00495 282.263 0.65238C292.487 -0.120478 306.192 -0.309298 316.434 0.652433C332.454 2.15677 339.493 2.71387 361.09 7.31724C362.061 7.43946 362.992 7.88727 364.309 8.27848C360.323 18.9036 353.217 26.1494 341.901 29.4909C333.21 32.0569 324.777 35.6163 316.434 39.209C306.788 43.3626 298.633 49.3893 294.049 59.3537C293.171 61.2627 291.544 62.8272 289.863 64.9431C289.259 65.6123 289.053 65.8891 288.847 66.166C288.847 66.166 288.926 66.1259 288.626 66.1527C287.861 66.4701 287.396 66.7608 286.93 67.0515C286.196 67.0709 285.462 67.0903 284.148 66.9483C283.077 66.5136 282.585 66.2402 282.094 65.9669C281.648 65.4227 281.202 64.8786 280.389 63.9343C279.375 62.7197 278.728 61.9052 278.081 61.0908C278.081 61.0908 278.034 61.1808 277.987 60.7929C273.043 52.4349 275.01 44.8124 279.11 37.2978C279.11 37.2978 279.02 37.2261 279.309 37.0986C280.138 36.0791 280.677 35.1871 281.216 34.2952C281.546 34.242 281.785 34.0647 282.264 33.3705C283.495 31.7577 284.394 30.5378 285.292 29.318C285.614 29.2611 285.837 29.0814 286.292 28.3619C288.763 24.5699 290.995 21.2066 288.036 17.1632Z" fill="#F7C467"/>
<path d="M69.9435 324.658C96.6943 340.946 125.152 353.695 154.223 365.142C161.936 368.179 169.832 370.754 178.086 373.59C190.371 377.455 202.169 381.414 214.07 385.037C221.691 387.357 229.463 389.183 237.57 391.231C264.927 396.57 291.882 401.914 318.84 407.237C320.951 407.654 356.835 412.429 359.493 413.214C366.454 414.923 381.562 415.449 387.993 416.714C385.493 418.714 366.012 416.811 337.493 415.214C331.178 414.86 308.327 411.331 301.582 411.179C292.126 409.995 283.092 408.775 274.058 407.554C260.441 404.999 246.824 402.445 232.488 399.696C228.06 398.567 224.357 397.599 220.638 396.701C207.394 393.502 194.144 390.327 180.897 387.143C156.913 378.866 132.865 370.77 108.98 362.219C100.092 359.037 91.5855 354.791 82.5575 350.918C63.8916 341.334 44.7766 333.202 28.4745 320.27C21.4632 314.709 14.4326 308.881 8.6551 302.112C-5.01396 286.097 -2.41486 271.81 15.9028 260.563C17.6165 259.833 18.7848 258.981 19.953 258.129C19.953 258.129 19.9773 258.198 20.2491 258.156C21.0075 257.786 21.4942 257.458 21.9809 257.13C21.9809 257.13 21.9753 257.199 22.3479 257.192C26.4828 256.032 30.1783 254.467 34.0264 253.842C37.7575 253.235 41.6454 253.592 45.1696 253.736C41.9005 255.403 38.781 256.626 35.9767 258.358C23.2527 266.219 20.7024 278.165 28.988 290.653C30.2678 292.582 31.6855 294.443 33.2217 296.174C43.1281 307.338 54.9789 316.037 67.9073 323.352C67.9073 323.352 67.9628 323.307 68.1156 323.544C68.8268 324.072 69.3851 324.365 69.9435 324.658Z" fill="#80E2D4"/>
<path d="M44.4927 254.214C39.9927 256.714 37.3459 253.315 33.6361 253.915C29.8099 254.533 26.1354 256.08 21.9927 257.214C33.8183 251.048 40.9927 249.214 54.9927 248.714C54.9927 250.714 54.9927 250.214 54.9927 251.214C56.288 251.031 53.5128 251.572 54.9927 251.214C50.8859 251.989 48.2175 253.347 44.4927 254.214Z" fill="#8DECDF"/>
<path d="M19.6342 258.196C18.7847 258.981 17.6165 259.833 16.2327 260.473C17.1166 259.595 18.216 258.93 19.6342 258.196Z" fill="#8DECDF"/>
<path d="M21.6849 257.175C21.4942 257.458 21.0075 257.786 20.2148 258.144C20.4022 257.855 20.8955 257.538 21.6849 257.175Z" fill="#8DECDF"/>
<path d="M415.993 390.214C436.017 387.007 456.33 384.438 476.383 381.691C488.853 379.982 501.348 378.461 514.096 377.959C507.611 380.036 501.107 382.058 494.643 384.198C472.415 391.556 450.321 399.35 427.926 406.158C417.908 409.203 410.25 415.446 401.883 421.696C400.993 422.714 401.493 422.714 400.993 422.214C400.796 421.498 400.292 420.78 400.549 420.313C405.041 412.151 409.666 404.063 414.183 395.915C415.057 394.339 415.319 392.278 415.993 390.214Z" fill="#80E2D4"/>
<path d="M384.981 92.2188C381.101 92.1971 377.182 92.3823 373.308 92.0533C372.404 91.9765 371.08 90.2323 370.925 89.1193C370.297 84.6142 369.966 80.061 369.695 75.5155C369.56 73.2352 369.085 70.5671 370.036 68.7351C371.186 66.519 373.483 63.9356 375.663 63.5238C377.375 63.2006 380.125 65.5656 381.593 67.3953C384.067 70.4794 385.926 74.0639 387.978 77.4774C391.562 83.4398 390.737 87.4332 385.024 91.9348C384.914 92.2754 384.959 92.2382 384.981 92.2188Z" fill="#F7C467"/>
<path d="M358.698 74.9333C362.952 73.8983 365.504 75.9969 365.772 79.3849C365.933 81.4299 364.205 84.772 362.476 85.4927C360.779 86.2006 357.018 85.0206 355.916 83.4437C353.791 80.4027 354.965 77.14 358.698 74.9333Z" fill="#F7C467"/>
<path d="M401.354 422.645C401.286 422.352 400.829 421.714 402.493 421.214C410.214 418.893 417.12 417.49 424.775 415.433C425.723 415.179 426.956 415.984 428.116 416.698C420.13 418.974 412.087 420.86 404.034 422.707C403.261 422.884 402.431 422.816 401.354 422.645Z" fill="#80E2D4"/>
<path d="M180.934 387.573C194.144 390.327 207.394 393.502 220.638 396.701C224.357 397.599 228.06 398.567 232.081 399.728C228.795 408.165 224.033 415.42 216.181 420.264C212.026 422.827 210.677 426.74 212.863 431.011C216.93 438.958 221.475 446.66 225.818 454.466C226.726 456.097 227.618 457.737 228.733 459.765C208.616 458.486 183.645 420.312 180.934 387.573Z" fill="#F7C467"/>
<path d="M65.0005 250.917C65.0409 250.917 64.9602 250.918 65.0005 250.917Z" fill="#137A7D"/>
<path d="M69.8073 324.35C69.3851 324.365 68.8268 324.073 68.0878 323.521C68.4951 323.523 69.083 323.782 69.8073 324.35Z" fill="#13797D"/>
<path d="M398.873 355.261C398.328 353.82 397.782 352.379 397.554 350.547C406.591 351.142 415.311 352.127 424.03 353.112C444.031 355.793 461.984 357.097 481.993 359.714C483.051 359.852 485.993 360.214 488.061 360.519C492.481 361.126 492.493 361.214 496.493 361.714C501.993 362.714 502.493 362.725 504.993 363.214C505.964 363.404 513.42 364.697 514.096 364.714C528.4 367.04 536.654 368.743 552.078 371.251C517.496 401.442 483.96 430.72 449.959 460.403C447.156 454.684 444.429 449.122 441.445 443.33C441.187 443.101 441.125 443.153 441.115 442.853C440.773 442.039 440.441 441.527 440.11 441.014C440.11 441.014 440.111 441.136 440.126 440.896C440.14 440.657 439.924 440.244 439.924 440.244C438.23 436.68 436.537 433.115 434.499 429.005C433.483 427.314 432.811 426.167 432.138 425.02C432.138 425.02 432.103 425.133 432.11 424.832C431.786 424.029 431.456 423.528 431.125 423.026C431.125 423.026 431.093 423.139 431.1 422.838C430.777 422.036 430.446 421.535 430.116 421.034C430.116 421.034 430.084 421.144 430.089 420.844C429.773 420.036 429.451 419.529 429.13 419.021C429.13 419.021 429.098 419.136 429.105 418.836C428.779 418.035 428.447 417.535 428.114 417.035C428.114 417.035 428.09 417.12 428.073 416.709C426.956 415.984 425.723 415.179 424.775 415.433C417.12 417.49 408.524 419.89 400.993 421.714C409.257 415.59 417.908 409.203 427.926 406.158C450.321 399.35 472.415 391.556 494.643 384.198C501.107 382.058 507.611 380.036 514.096 377.959C501.348 378.461 488.853 379.982 476.383 381.691C456.33 384.438 436.294 387.308 416.25 390.126C415.44 388.586 414.631 387.046 413.472 385.016C412.785 384.021 412.446 383.516 412.108 383.011C412.108 383.011 412.083 383.163 412.104 382.852C411.786 382.033 411.447 381.524 411.107 381.016C411.107 381.016 411.064 381.166 411.086 380.845C410.768 379.961 410.427 379.398 410.086 378.835C409.97 378.348 409.854 377.861 409.427 376.953C408.778 376.028 408.439 375.523 408.101 375.018C408.101 375.018 408.074 375.165 408.093 374.857C407.775 374.04 407.437 373.531 407.099 373.022C407.099 373.022 407.066 373.166 407.081 372.862C406.762 372.049 406.427 371.539 406.092 371.029C406.092 371.029 406.063 371.169 406.081 370.862C405.767 370.043 405.435 369.531 405.102 369.019C405.102 369.019 405.071 369.164 405.087 368.858C404.769 368.042 404.434 367.532 404.099 367.022C404.099 367.022 404.068 367.165 404.083 366.86C403.769 366.041 403.44 365.527 403.111 365.013C403.111 365.013 403.084 365.163 403.107 364.852C402.792 364.028 402.455 363.516 402.118 363.004C402.118 363.004 402.109 363.149 402.11 362.783C401.032 360.032 399.953 357.646 398.873 355.261Z" fill="#FDFEFE"/>
<path d="M516.491 376.745C516.523 376.735 516.458 376.755 516.491 376.745Z" fill="#80E2D4"/>
</g>
<defs>
<clipPath id="clip0_250_17686">
<rect width="553" height="490" fill="white"/>
</clipPath>
</defs>
</svg>
